<svg xmlns="http://www.w3.org/2000/svg" width="1200" height="720" viewBox="0 0 1200 720" role="img" aria-labelledby="title desc">
  <title id="title">zozincanvas preview</title>
  <desc id="desc">A preview mockup of the zozincanvas browser image editor.</desc>
  <rect width="1200" height="720" fill="#f7f2e8"/>
  <rect x="52" y="48" width="1096" height="624" rx="28" fill="#111111"/>
  <rect x="82" y="80" width="1036" height="564" rx="18" fill="#fffaf0"/>
  <rect x="82" y="80" width="1036" height="78" rx="18" fill="#ffd84d"/>
  <text x="118" y="130" fill="#111111" font-family="Arial, sans-serif" font-size="32" font-weight="700">zozincanvas</text>
  <text x="914" y="128" fill="#111111" font-family="Arial, sans-serif" font-size="18" font-weight="700">PNG JPG WEBP</text>
  <rect x="118" y="190" width="168" height="410" rx="16" fill="#111111"/>
  <text x="146" y="238" fill="#ffffff" font-family="Arial, sans-serif" font-size="20" font-weight="700">TOOLS</text>
  <rect x="142" y="268" width="120" height="42" rx="8" fill="#ffd84d"/>
  <text x="172" y="296" fill="#111111" font-family="Arial, sans-serif" font-size="17" font-weight="700">DRAW</text>
  <rect x="142" y="326" width="120" height="42" rx="8" fill="#ffffff"/>
  <text x="174" y="354" fill="#111111" font-family="Arial, sans-serif" font-size="17" font-weight="700">BLUR</text>
  <rect x="142" y="384" width="120" height="42" rx="8" fill="#ffffff"/>
  <text x="170" y="412" fill="#111111" font-family="Arial, sans-serif" font-size="17" font-weight="700">TEXT</text>
  <rect x="142" y="442" width="120" height="42" rx="8" fill="#ffffff"/>
  <text x="164" y="470" fill="#111111" font-family="Arial, sans-serif" font-size="17" font-weight="700">ARROW</text>
  <rect x="142" y="520" width="36" height="36" rx="18" fill="#f04438"/>
  <rect x="188" y="520" width="36" height="36" rx="18" fill="#2f80ed"/>
  <rect x="234" y="520" width="36" height="36" rx="18" fill="#27ae60"/>
  <rect x="326" y="190" width="548" height="410" rx="18" fill="#ffffff" stroke="#111111" stroke-width="6"/>
  <rect x="374" y="244" width="452" height="286" rx="10" fill="#e7eef7"/>
  <circle cx="490" cy="352" r="72" fill="#ffd84d"/>
  <rect x="573" y="304" width="190" height="96" rx="12" fill="#111111" opacity=".18"/>
  <rect x="566" y="298" width="190" height="96" rx="12" fill="none" stroke="#111111" stroke-width="5" stroke-dasharray="14 10"/>
  <path d="M425 502 C503 432 572 455 642 382" fill="none" stroke="#f04438" stroke-width="14" stroke-linecap="round"/>
  <path d="M673 460 L777 374" fill="none" stroke="#111111" stroke-width="12" stroke-linecap="round"/>
  <path d="M777 374 L754 376 L769 393 Z" fill="#111111"/>
  <rect x="430" y="214" width="238" height="54" rx="8" fill="#ffffff" stroke="#111111" stroke-width="4"/>
  <text x="454" y="250" fill="#111111" font-family="Arial, sans-serif" font-size="24" font-weight="700">이미지 가리고 표시</text>
  <rect x="910" y="190" width="166" height="410" rx="16" fill="#111111"/>
  <text x="942" y="238" fill="#ffffff" font-family="Arial, sans-serif" font-size="20" font-weight="700">EXPORT</text>
  <rect x="936" y="278" width="114" height="44" rx="8" fill="#ffffff"/>
  <text x="969" y="307" fill="#111111" font-family="Arial, sans-serif" font-size="17" font-weight="700">PNG</text>
  <rect x="936" y="342" width="114" height="44" rx="8" fill="#ffffff"/>
  <text x="971" y="371" fill="#111111" font-family="Arial, sans-serif" font-size="17" font-weight="700">JPG</text>
  <rect x="936" y="406" width="114" height="44" rx="8" fill="#ffffff"/>
  <text x="962" y="435" fill="#111111" font-family="Arial, sans-serif" font-size="17" font-weight="700">WEBP</text>
  <rect x="936" y="514" width="114" height="52" rx="10" fill="#ffd84d"/>
  <text x="957" y="548" fill="#111111" font-family="Arial, sans-serif" font-size="18" font-weight="700">SAVE</text>
</svg>
